<?xml version="1.0" standalone="no"?>
<!DOCTYPE svg PUBLIC "-//W3C//DTD SVG 20010904//EN"
 "http://www.w3.org/TR/2001/REC-SVG-20010904/DTD/svg10.dtd">
<svg version="1.0" xmlns="http://www.w3.org/2000/svg"
 width="430.000000pt" height="430.000000pt" viewBox="0 0 430.000000 430.000000"
 preserveAspectRatio="xMidYMid meet">
<metadata>
Created by potrace 1.11, written by Peter Selinger 2001-2013
</metadata>
<g transform="translate(0.000000,430.000000) scale(0.100000,-0.100000)"
fill="#000000" stroke="none">
<path d="M1710 4116 c-146 -43 -286 -162 -394 -337 -33 -53 -35 -61 -15 -46
80 58 163 109 208 127 50 19 76 23 271 35 129 8 229 31 368 85 81 32 224 109
207 111 -33 5 -61 7 -160 14 -60 3 -128 8 -150 11 -129 12 -293 13 -335 0z"/>
<path d="M3265 3793 c41 -65 150 -195 206 -248 33 -30 89 -71 125 -91 105 -59
211 -150 303 -259 l33 -40 -5 90 c-6 102 -36 196 -89 273 -72 106 -158 158
-337 203 -163 41 -181 48 -221 78 l-35 26 20 -32z"/>
<path d="M1850 3754 c-266 -49 -528 -216 -730 -464 -25 -30 -47 -57 -51 -60
-3 -3 -15 -22 -28 -43 -23 -37 -42 -46 -23 -10 11 20 57 188 67 243 11 63 15
285 5 300 -23 36 -233 -233 -313 -400 -106 -224 -175 -524 -178 -777 -1 -63
-9 -65 -64 -20 -116 95 -188 212 -261 425 -23 68 -44 120 -47 115 -19 -31 -41
-194 -41 -308 -1 -190 14 -273 76 -424 82 -198 223 -374 453 -566 164 -137
258 -243 316 -357 11 -22 19 -44 17 -49 -2 -5 -38 19 -80 53 -42 35 -89 73
-105 86 -134 108 -398 262 -551 321 -72 27 -222 64 -230 56 -2 -2 13 -20 34
-42 97 -99 167 -200 227 -327 46 -96 94 -165 164 -231 l53 -50 -57 -1 c-186
-2 -447 -47 -486 -83 -4 -4 39 -20 95 -35 276 -76 481 -187 633 -341 71 -72
148 -188 143 -214 -2 -11 -18 -14 -68 -13 -54 2 -62 0 -45 -9 30 -18 73 -54
145 -123 117 -111 204 -167 316 -205 114 -38 208 -50 354 -47 283 8 520 115
742 336 l87 87 55 -54 c188 -181 417 -225 663 -127 75 30 180 90 240 138 l40
31 -176 0 c-185 0 -254 11 -355 56 -45 20 -46 20 -30 44 9 13 37 34 62 47 46
22 54 23 362 24 355 0 377 4 509 81 78 46 220 183 283 273 49 70 91 140 86
145 -2 2 -50 -12 -108 -32 -170 -56 -337 -55 -426 4 -25 16 -25 18 -9 28 102
60 316 251 383 340 12 17 36 48 53 70 99 128 267 475 230 475 -10 0 -158 -98
-260 -173 -36 -26 -66 -46 -67 -44 -1 1 24 56 56 121 59 121 111 266 131 366
18 89 20 257 4 332 -15 72 -61 177 -93 217 l-20 25 4 -35 c6 -56 5 -231 -2
-279 -13 -96 -48 -175 -95 -214 -24 -20 -34 -24 -40 -15 -4 7 -5 17 -2 22 11
18 13 294 3 373 -30 222 -112 378 -231 439 l-28 15 5 -87 c2 -49 6 -101 9
-118 2 -16 7 -64 11 -105 3 -41 8 -78 11 -82 2 -5 2 -8 0 -8 -3 0 -24 32 -47
71 -75 127 -202 245 -335 311 -98 49 -177 71 -302 84 -56 6 -63 4 -63 -11 0
-40 104 -168 176 -217 19 -13 34 -25 34 -28 0 -3 -24 -5 -52 -4 -194 5 -358
-85 -425 -234 -23 -52 -28 -75 -37 -157 l-4 -40 16 25 c33 51 129 136 184 163
229 110 520 65 672 -104 107 -120 158 -329 122 -506 -36 -181 -125 -327 -300
-496 -320 -307 -611 -415 -846 -313 -42 18 -92 51 -86 57 2 2 7 31 11 64 3 32
8 62 10 65 1 3 6 32 9 65 4 33 9 78 11 100 2 22 7 67 10 101 3 33 21 107 40
164 19 57 34 105 32 106 -2 2 -19 -1 -38 -6 -179 -51 -304 -79 -354 -81 -64
-2 -131 -29 -173 -69 -68 -64 -131 -210 -154 -354 -6 -42 -15 -76 -20 -76 -19
0 -187 112 -240 159 -113 102 -212 258 -257 401 -103 332 -18 695 212 906 163
149 376 188 617 113 171 -53 333 -181 444 -349 32 -48 35 -50 41 -29 14 42 13
183 -1 249 -17 82 -62 174 -119 244 l-45 54 52 -3 c31 -3 76 -16 110 -33 32
-16 58 -24 58 -18 0 6 -10 31 -21 55 -63 140 -191 210 -377 207 -51 -1 -92 1
-92 4 0 12 76 78 107 94 59 29 153 46 243 41 47 -2 93 -7 103 -10 9 -4 17 -5
17 -2 0 10 -186 77 -285 103 -130 33 -355 42 -485 18z"/>
<path d="M528 3692 c-5 -50 -25 -96 -101 -232 -45 -81 -65 -158 -61 -230 4
-65 45 -213 77 -275 l22 -44 2 47 c2 64 25 142 88 292 29 69 56 136 60 150 18
58 -4 168 -59 291 l-23 53 -5 -52z"/>
</g>
</svg>
